Coordinates
version=1
nRows=19
nColumns=24
inDegrees=yes

Units are S.I. units (second, meters, Newtons, ...)
Angles are in degrees.

endheader
time	pelvis_tilt	pelvis_list	pelvis_rotation	pelvis_tx	pelvis_ty	pelvis_tz	hip_flexion_r	hip_adduction_r	hip_rotation_r	knee_angle_r	ankle_angle_r	subtalar_angle_r	mtp_angle_r	hip_flexion_l	hip_adduction_l	hip_rotation_l	knee_angle_l	ankle_angle_l	subtalar_angle_l	mtp_angle_l	lumbar_extension	lumbar_bending	lumbar_rotation
      6.70500000	     -9.04313738	     -2.04637068	     14.98857229	     -1.73769038	     -0.02171033	     -0.29386209	     32.25327223	     -4.47780946	    -13.67876371	     -9.71803392	     -1.24012942	      5.38791709	     10.84253485	     -3.15868500	      0.29110587	     19.37730417	    -17.20562724	      5.90077817	      1.93498866	     18.52918800	      6.41508537	     -2.37499877	    -13.72016071
      6.71000000	     -9.11000677	     -2.12335580	     15.15168860	     -1.73120431	     -0.02240289	     -0.29365944	     32.32391557	     -4.53662965	    -14.16872935	    -10.43061162	     -1.64237690	      5.55532960	     11.53354071	     -3.21114533	      0.10210526	     19.23805807	    -17.67819282	      5.81448085	      2.63794203	     18.49147259	      6.68109813	     -2.30366420	    -13.86249223
      6.71500000	     -9.19190136	     -2.15603526	     15.20944750	     -1.72470475	     -0.02305692	     -0.29338951	     32.39615240	     -4.58661609	    -14.51017767	    -11.00026078	     -2.71834376	      5.43198226	     13.82015922	     -3.29102279	     -0.02388758	     19.09450661	    -18.07681786	      5.42749915	      3.00719704	     18.81928549	      6.95329607	     -2.25659243	    -13.84055315
      6.72000000	     -9.22998116	     -2.31778709	     15.28312266	     -1.71812827	     -0.02357921	     -0.29305409	     32.45219877	     -4.49319584	    -14.87099543	    -11.67738334	     -3.15612577	      5.54372991	     13.97471920	     -3.35301517	     -0.31732112	     18.88400247	    -18.52570457	      5.16647832	      3.62808132	     19.04510280	      7.22705136	     -2.07188914	    -13.87358361
      6.72500000	     -9.30016301	     -2.46928483	     15.33966388	     -1.71166303	     -0.02405631	     -0.29262885	     32.55065510	     -4.40013716	    -15.11211802	    -12.32120278	     -3.70530391	      5.62108761	     14.41287388	     -3.32368917	     -0.59732636	     18.55375629	    -19.03993678	      4.80731888	      4.36797605	     19.55473369	      7.50913458	     -1.91353706	    -13.84473233
      6.73000000	     -9.36672461	     -2.67029786	     15.33515255	     -1.70518647	     -0.02444282	     -0.29212591	     32.67173036	     -4.21051860	    -15.24755350	    -12.94340212	     -4.40845671	      5.55069631	     14.97235838	     -3.29131261	     -0.93390693	     18.16978456	    -19.52297458	      4.34301697	      5.03316695	     20.22811928	      7.80144266	     -1.68961316	    -13.83267633
      6.73500000	     -9.41905946	     -2.96331529	     15.28184966	     -1.69857889	     -0.02471042	     -0.29163586	     32.77023879	     -3.88497143	    -15.23386124	    -13.52322163	     -5.02736077	      5.54127504	     15.31773234	     -3.26445742	     -1.35945052	     17.84880255	    -20.01048936	      3.84120961	      5.60509488	     20.73094377	      8.13436128	     -1.34472945	    -13.72918959
      6.74000000	     -9.45804181	     -3.20273512	     15.23528559	     -1.69220894	     -0.02486404	     -0.29103887	     32.87895822	     -3.58028316	    -15.03314352	    -14.12795434	     -5.72979860	      5.30750693	     15.70824929	     -3.17285468	     -1.74343568	     17.32357864	    -20.58961724	      3.21328537	      6.31178091	     21.51668066	      8.38971753	     -1.06407579	    -13.68350509
      6.74500000	     -9.49123857	     -3.52676872	     15.11266782	     -1.68568627	     -0.02492716	     -0.29042011	     32.99386202	     -3.13616218	    -14.73973621	    -14.73302952	     -6.33626614	      5.14393159	     15.90195480	     -3.09542813	     -2.21284195	     16.84412033	    -21.14911407	      2.56354966	      6.97642052	     22.18724159	      8.69033025	     -0.67213991	    -13.55130268
      6.75000000	     -9.51363727	     -3.85134465	     15.00513776	     -1.67917403	     -0.02489745	     -0.28977583	     33.08299645	     -2.65621894	    -14.23892888	    -15.32781009	     -6.87633776	      4.79560340	     15.96485008	     -2.97194840	     -2.69440359	     16.26059393	    -21.77469886	      1.78425134	      7.68201163	     23.01234306	      8.97840462	     -0.28337269	    -13.43219457
      6.75500000	     -9.52150582	     -4.19127817	     14.84670839	     -1.67262850	     -0.02478326	     -0.28908404	     33.16967175	     -2.11266303	    -13.65840597	    -15.94889294	     -7.33288957	      4.43769567	     15.85568808	     -2.85066492	     -3.19992800	     15.63753248	    -22.41954257	      0.94989198	      8.43108914	     23.82462681	      9.25715365	      0.13897341	    -13.28197662
      6.76000000	     -9.52409755	     -4.54839682	     14.68061762	     -1.66602781	     -0.02457774	     -0.28838704	     33.23253157	     -1.51145749	    -12.96420645	    -16.54971929	     -7.73498621	      3.88142618	     15.41464831	     -2.72681455	     -3.72672353	     15.03810256	    -23.02634478	     -0.18570570	      8.96820447	     25.16550507	      9.54142733	      0.58204088	    -13.13267581
      6.76500000	     -9.49169860	     -4.87074986	     14.50177581	     -1.65944313	     -0.02434271	     -0.28764329	     33.25281709	     -0.91846758	    -12.24434410	    -17.17655895	     -7.93834829	      3.41979593	     15.01173743	     -2.57774558	     -4.24405987	     14.27623467	    -23.78342403	     -1.14010150	      9.88155226	     25.96291908	      9.76999706	      0.99519949	    -12.98922604
      6.77000000	     -9.46208974	     -5.20592664	     14.24754172	     -1.65270707	     -0.02404936	     -0.28695456	     33.25491952	     -0.28023482	    -11.59065135	    -17.77001781	     -8.11337909	      3.01091182	     14.64947984	     -2.44077666	     -4.77035038	     13.47200351	    -24.54334786	     -2.17712753	     10.78725353	     26.57819926	     10.03241333	      1.46508527	    -12.74579587
      6.77500000	     -9.39981313	     -5.50417725	     14.07614949	     -1.64599554	     -0.02365434	     -0.28619941	     33.17144460	      0.34844659	    -10.80565400	    -18.33804970	     -8.09503095	      2.25897394	     13.47606592	     -2.31229042	     -5.28659279	     12.73238638	    -25.23052924	     -3.76200802	     11.31315749	     28.34282341	     10.23860490	      1.85146868	    -12.63605050
      6.78000000	     -9.33302899	     -5.77360204	     13.85874343	     -1.63923894	     -0.02327244	     -0.28548054	     33.05295222	      0.95438883	    -10.09033471	    -18.88055209	     -7.93018343	      1.77451181	     12.62373817	     -2.16465748	     -5.78025128	     11.92056608	    -26.02571755	     -5.17393925	     12.15089911	     29.48259826	     10.43863768	      2.23790311	    -12.48063476
      6.78500000	     -9.28631894	     -6.02244543	     13.64642233	     -1.63249064	     -0.02289291	     -0.28477510	     32.90975784	      1.52745778	     -9.49650437	    -19.32339125	     -7.94261802	      1.19755477	     12.36667325	     -1.94486901	     -6.25042375	     11.11083647	    -26.95557618	     -6.44515954	     13.17564763	     29.84259400	     10.65288790	      2.59261632	    -12.32384003
      6.79000000	     -9.21903338	     -6.22880304	     13.46841908	     -1.62580413	     -0.02243151	     -0.28403161	     32.67698998	      2.09495260	     -8.75059041	    -19.67561274	     -7.93938826	      0.32583735	     11.69759782	     -1.73548478	     -6.68344357	     10.39497841	    -27.82660240	     -8.14459378	     13.83680261	     30.96004013	     10.82122215	      2.89326558	    -12.23656753
      6.79500000	     -9.17306853	     -6.42368584	     13.25404180	     -1.61906994	     -0.02199503	     -0.28333654	     32.43275503	      2.62687465	     -8.21086650	    -19.98147171	     -7.77811890	     -0.20166096	     11.33381187	     -1.48397120	     -7.10777472	      9.62170220	    -28.75536930	     -9.82566698	     14.60257857	     31.76614845	     11.02029482	      3.19612795	    -12.09275886
